<svg width="48" height="48" viewBox="0 0 48 48" fill="none" xmlns="http://www.w3.org/2000/svg">
<g clip-path="url(#clip0_75_47)">
<path d="M36 0H12C5.37258 0 0 5.37258 0 12V36C0 42.6274 5.37258 48 12 48H36C42.6274 48 48 42.6274 48 36V12C48 5.37258 42.6274 0 36 0Z" fill="#B3ABFF" fill-opacity="0.2"/>
<path d="M29.1622 6.46729H18.2531C11.6256 6.46729 6.25305 11.8399 6.25305 18.4673V29.3764C6.25305 36.0038 11.6256 41.3764 18.2531 41.3764H29.1622C35.7896 41.3764 41.1622 36.0038 41.1622 29.3764V18.4673C41.1622 11.8399 35.7896 6.46729 29.1622 6.46729Z" fill="white"/>
<path fill-rule="evenodd" clip-rule="evenodd" d="M23.3531 32.9056C23.4538 32.9582 23.5663 32.9849 23.6789 32.984C23.7915 32.9831 23.9032 32.9555 24.0048 32.902L27.2483 31.1681C28.168 30.6779 28.8883 30.1296 29.4503 29.4913C30.6721 28.1006 31.3393 26.3258 31.3274 24.4955L31.2889 18.4586C31.2853 17.7632 30.8286 17.1428 30.1532 16.9172L24.1192 14.8928C23.7558 14.7698 23.3577 14.7724 23.0008 14.899L16.9896 16.9957C16.3179 17.2302 15.8694 17.8551 15.8731 18.5513L15.9115 24.5838C15.9234 26.4167 16.6135 28.1835 17.8554 29.5599C18.4228 30.1893 19.1495 30.7295 20.0794 31.2118L23.3531 32.9056ZM22.4944 25.8104C22.6299 25.9406 22.8056 26.0047 22.9813 26.003C23.1571 26.0021 23.3319 25.9361 23.4655 25.8041L27.0101 22.3096C27.2765 22.0466 27.2737 21.6241 27.0046 21.3647C26.7346 21.1052 26.2999 21.107 26.0336 21.37L22.9713 24.3885L21.7174 23.1833C21.4474 22.9238 21.0136 22.9265 20.7464 23.1895C20.4801 23.4524 20.4828 23.875 20.7528 24.1344L22.4944 25.8104Z" fill="#B3ABFF"/>
</g>
<defs>
<clipPath id="clip0_75_47">
<rect width="48" height="48" fill="white"/>
</clipPath>
</defs>
</svg>
