<svg width="137" height="40" viewBox="0 0 137 40" fill="none" xmlns="http://www.w3.org/2000/svg">
<mask id="mask0_11_1047" style="mask-type:luminance" maskUnits="userSpaceOnUse" x="0" y="0" width="40" height="40">
<path d="M40 0H0V40H40V0Z" fill="white"/>
</mask>
<g mask="url(#mask0_11_1047)">
<path d="M32.6667 0H7.33333C3.28325 0 0 3.28325 0 7.33333V32.6667C0 36.7168 3.28325 40 7.33333 40H32.6667C36.7168 40 40 36.7168 40 32.6667V7.33333C40 3.28325 36.7168 0 32.6667 0Z" fill="white"/>
<path fill-rule="evenodd" clip-rule="evenodd" d="M19.0645 22.0604C19.0833 22.045 19.1021 22.0295 19.1206 22.0137L19.0645 22.0604Z" fill="#4310D3"/>
<path fill-rule="evenodd" clip-rule="evenodd" d="M17.9473 20.3827C17.9661 20.3674 17.9848 20.3518 18.0034 20.3359L17.9473 20.3827Z" fill="#EEEEEE"/>
<path d="M8.5133 21.1121C8.97088 25.6819 13.0808 29.0121 17.693 28.5503C18.8983 28.4296 20.0184 28.0619 21.0077 27.5031L19.4678 21.8495L19.4277 21.9127C18.9405 22.6597 18.1276 23.1884 17.1658 23.2848C15.4886 23.4527 13.9941 22.2417 13.8277 20.58C13.6613 18.9182 14.886 17.435 16.5632 17.267C17.5305 17.1702 18.4371 17.5256 19.0632 18.1679L19.4228 12.3483C18.3618 12.0132 17.2153 11.8834 16.036 12.0015C11.4237 12.4633 8.05573 16.5423 8.5133 21.1121Z" fill="#1F2937"/>
<path fill-rule="evenodd" clip-rule="evenodd" d="M19.4666 21.8518L21.0064 27.5054C22.1706 26.8477 23.1534 25.9252 23.8797 24.8287L30.4742 13.5123C30.9033 12.7759 30.6668 11.8317 29.9412 11.3846C28.1809 10.2997 25.8722 10.8852 24.8416 12.6778L23.4458 15.1058L23.5972 15.3007L20.6768 19.8963L19.4666 21.8518Z" fill="#1F2937"/>
<path fill-rule="evenodd" clip-rule="evenodd" d="M23.4468 15.1056L32.9452 25.991C33.5191 26.6487 33.4687 27.6428 32.8311 28.239C31.3345 29.6385 28.974 29.5121 27.6355 27.9606L20.6779 19.8961L19.063 18.1699L19.4225 12.3503C21.096 12.8789 22.5568 13.9181 23.5983 15.3004L23.4468 15.1056Z" fill="#1F2937"/>
</g>
<path d="M56.2628 17H54.2855L57.2983 8.27273H59.6761L62.6847 17H60.7074L58.5213 10.267H58.4531L56.2628 17ZM56.1392 13.5696H60.8097V15.0099H56.1392V13.5696ZM65.5163 8.27273V17H63.701V8.27273H65.5163ZM66.9705 19.4545V10.4545H68.7603V11.554H68.8413C68.9208 11.3778 69.0359 11.1989 69.1864 11.017C69.3398 10.8324 69.5387 10.679 69.783 10.5568C70.0302 10.4318 70.337 10.3693 70.7035 10.3693C71.1808 10.3693 71.6211 10.4943 72.0245 10.7443C72.4279 10.9915 72.7504 11.3651 72.9918 11.8651C73.2333 12.3622 73.354 12.9858 73.354 13.7358C73.354 14.4659 73.2362 15.0824 73.0004 15.5852C72.7674 16.0852 72.4492 16.4645 72.0458 16.723C71.6452 16.9787 71.1964 17.1065 70.6992 17.1065C70.3469 17.1065 70.0472 17.0483 69.8001 16.9318C69.5558 16.8153 69.3555 16.669 69.1992 16.4929C69.043 16.3139 68.9237 16.1335 68.8413 15.9517H68.7859V19.4545H66.9705ZM68.7475 13.7273C68.7475 14.1165 68.8015 14.456 68.9094 14.7457C69.0174 15.0355 69.1737 15.2614 69.3782 15.4233C69.5827 15.5824 69.8313 15.6619 70.1239 15.6619C70.4194 15.6619 70.6694 15.581 70.8739 15.419C71.0785 15.2543 71.2333 15.027 71.3384 14.7372C71.4464 14.4446 71.5004 14.108 71.5004 13.7273C71.5004 13.3494 71.4478 13.017 71.3427 12.7301C71.2376 12.4432 71.0827 12.2187 70.8782 12.0568C70.6737 11.8949 70.4222 11.8139 70.1239 11.8139C69.8285 11.8139 69.5785 11.892 69.3739 12.0483C69.1722 12.2045 69.0174 12.4261 68.9094 12.7131C68.8015 13 68.7475 13.3381 68.7475 13.7273ZM76.3796 13.2159V17H74.5643V8.27273H76.3285V11.6094H76.4052C76.5529 11.223 76.7915 10.9205 77.1211 10.7017C77.4506 10.4801 77.864 10.3693 78.3612 10.3693C78.8157 10.3693 79.212 10.4688 79.5501 10.6676C79.891 10.8636 80.1552 11.1463 80.3427 11.5156C80.533 11.8821 80.6268 12.321 80.6239 12.8324V17H78.8086V13.1562C78.8114 12.7528 78.7092 12.4389 78.5018 12.2145C78.2972 11.9901 78.0103 11.8778 77.641 11.8778C77.3938 11.8778 77.1751 11.9304 76.9847 12.0355C76.7972 12.1406 76.6495 12.294 76.5415 12.4957C76.4364 12.6946 76.3825 12.9347 76.3796 13.2159ZM83.919 17.1236C83.5014 17.1236 83.1293 17.0511 82.8026 16.9062C82.4759 16.7585 82.2173 16.5412 82.027 16.2543C81.8395 15.9645 81.7457 15.6037 81.7457 15.1719C81.7457 14.8082 81.8125 14.5028 81.946 14.2557C82.0795 14.0085 82.2614 13.8097 82.4915 13.6591C82.7216 13.5085 82.983 13.3949 83.2756 13.3182C83.571 13.2415 83.8807 13.1875 84.2045 13.1562C84.5852 13.1165 84.892 13.0795 85.125 13.0455C85.358 13.0085 85.527 12.9545 85.6321 12.8835C85.7372 12.8125 85.7898 12.7074 85.7898 12.5682V12.5426C85.7898 12.2727 85.7045 12.0639 85.5341 11.9162C85.3665 11.7685 85.1278 11.6946 84.8182 11.6946C84.4915 11.6946 84.2315 11.767 84.0384 11.9119C83.8452 12.054 83.7173 12.233 83.6548 12.4489L81.9759 12.3125C82.0611 11.9148 82.2287 11.571 82.4787 11.2812C82.7287 10.9886 83.0511 10.7642 83.446 10.608C83.8438 10.4489 84.304 10.3693 84.8267 10.3693C85.1903 10.3693 85.5384 10.4119 85.8707 10.4972C86.206 10.5824 86.5028 10.7145 86.7614 10.8935C87.0227 11.0724 87.2287 11.3026 87.3793 11.5838C87.5298 11.8622 87.6051 12.196 87.6051 12.5852V17H85.8835V16.0923H85.8324C85.7273 16.2969 85.5866 16.4773 85.4105 16.6335C85.2344 16.7869 85.0227 16.9077 84.7756 16.9957C84.5284 17.081 84.2429 17.1236 83.919 17.1236ZM84.4389 15.8707C84.706 15.8707 84.9418 15.8182 85.1463 15.7131C85.3509 15.6051 85.5114 15.4602 85.6278 15.2784C85.7443 15.0966 85.8026 14.8906 85.8026 14.6605V13.9659C85.7457 14.0028 85.6676 14.0369 85.5682 14.0682C85.4716 14.0966 85.3622 14.1236 85.2401 14.1491C85.1179 14.1719 84.9957 14.1932 84.8736 14.2131C84.7514 14.2301 84.6406 14.2457 84.5412 14.2599C84.3281 14.2912 84.142 14.3409 83.983 14.4091C83.8239 14.4773 83.7003 14.5696 83.6122 14.6861C83.5241 14.7997 83.4801 14.9418 83.4801 15.1122C83.4801 15.3594 83.5696 15.5483 83.7486 15.679C83.9304 15.8068 84.1605 15.8707 84.4389 15.8707Z" fill="white"/>
<path d="M62.4588 26.3281H60.5923C60.5582 26.0866 60.4886 25.8722 60.3835 25.6847C60.2784 25.4943 60.1435 25.3324 59.9787 25.1989C59.8139 25.0653 59.6236 24.9631 59.4077 24.892C59.1946 24.821 58.9631 24.7855 58.7131 24.7855C58.2614 24.7855 57.8679 24.8977 57.5327 25.1222C57.1974 25.3437 56.9375 25.6676 56.7528 26.0938C56.5682 26.517 56.4759 27.0312 56.4759 27.6364C56.4759 28.2585 56.5682 28.7812 56.7528 29.2045C56.9403 29.6278 57.2017 29.9474 57.5369 30.1634C57.8722 30.3793 58.2599 30.4872 58.7003 30.4872C58.9474 30.4872 59.1761 30.4545 59.3864 30.3892C59.5994 30.3239 59.7884 30.2287 59.9531 30.1037C60.1179 29.9759 60.2543 29.821 60.3622 29.6392C60.473 29.4574 60.5497 29.25 60.5923 29.017L62.4588 29.0256C62.4105 29.4261 62.2898 29.8125 62.0966 30.1847C61.9063 30.554 61.6491 30.8849 61.3253 31.1776C61.0043 31.4673 60.6207 31.6974 60.1747 31.8679C59.7315 32.0355 59.2301 32.1193 58.6705 32.1193C57.892 32.1193 57.196 31.9432 56.5824 31.5909C55.9716 31.2386 55.4886 30.7287 55.1335 30.0611C54.7812 29.3935 54.6051 28.5852 54.6051 27.6364C54.6051 26.6847 54.7841 25.875 55.142 25.2074C55.5 24.5398 55.9858 24.0312 56.5994 23.6818C57.2131 23.3295 57.9034 23.1534 58.6705 23.1534C59.1761 23.1534 59.6449 23.2244 60.0767 23.3665C60.5114 23.5085 60.8963 23.7159 61.2315 23.9886C61.5668 24.2585 61.8395 24.5895 62.0497 24.9815C62.2628 25.3736 62.3991 25.8224 62.4588 26.3281ZM65.6143 32.1236C65.1967 32.1236 64.8246 32.0511 64.4979 31.9062C64.1712 31.7585 63.9126 31.5412 63.7223 31.2543C63.5348 30.9645 63.4411 30.6037 63.4411 30.1719C63.4411 29.8082 63.5078 29.5028 63.6413 29.2557C63.7749 29.0085 63.9567 28.8097 64.1868 28.6591C64.4169 28.5085 64.6783 28.3949 64.9709 28.3182C65.2663 28.2415 65.576 28.1875 65.8999 28.1562C66.2805 28.1165 66.5874 28.0795 66.8203 28.0455C67.0533 28.0085 67.2223 27.9545 67.3274 27.8835C67.4325 27.8125 67.4851 27.7074 67.4851 27.5682V27.5426C67.4851 27.2727 67.3999 27.0639 67.2294 26.9162C67.0618 26.7685 66.8232 26.6946 66.5135 26.6946C66.1868 26.6946 65.9268 26.767 65.7337 26.9119C65.5405 27.054 65.4126 27.233 65.3501 27.4489L63.6712 27.3125C63.7564 26.9148 63.924 26.571 64.174 26.2812C64.424 25.9886 64.7464 25.7642 65.1413 25.608C65.5391 25.4489 65.9993 25.3693 66.522 25.3693C66.8857 25.3693 67.2337 25.4119 67.5661 25.4972C67.9013 25.5824 68.1982 25.7145 68.4567 25.8935C68.718 26.0724 68.924 26.3026 69.0746 26.5838C69.2251 26.8622 69.3004 27.196 69.3004 27.5852V32H67.5788V31.0923H67.5277C67.4226 31.2969 67.282 31.4773 67.1058 31.6335C66.9297 31.7869 66.718 31.9077 66.4709 31.9957C66.2237 32.081 65.9382 32.1236 65.6143 32.1236ZM66.1342 30.8707C66.4013 30.8707 66.6371 30.8182 66.8416 30.7131C67.0462 30.6051 67.2067 30.4602 67.3232 30.2784C67.4396 30.0966 67.4979 29.8906 67.4979 29.6605V28.9659C67.4411 29.0028 67.3629 29.0369 67.2635 29.0682C67.1669 29.0966 67.0575 29.1236 66.9354 29.1491C66.8132 29.1719 66.6911 29.1932 66.5689 29.2131C66.4467 29.2301 66.3359 29.2457 66.2365 29.2599C66.0234 29.2912 65.8374 29.3409 65.6783 29.4091C65.5192 29.4773 65.3956 29.5696 65.3075 29.6861C65.2195 29.7997 65.1754 29.9418 65.1754 30.1122C65.1754 30.3594 65.2649 30.5483 65.4439 30.679C65.6257 30.8068 65.8558 30.8707 66.1342 30.8707ZM70.7088 32V25.4545H72.4688V26.5966H72.5369C72.6563 26.1903 72.8565 25.8835 73.1378 25.6761C73.419 25.4659 73.7429 25.3608 74.1094 25.3608C74.2003 25.3608 74.2983 25.3665 74.4034 25.3778C74.5085 25.3892 74.6009 25.4048 74.6804 25.4247V27.0355C74.5952 27.0099 74.4773 26.9872 74.3267 26.9673C74.1761 26.9474 74.0384 26.9375 73.9134 26.9375C73.6463 26.9375 73.4077 26.9957 73.1974 27.1122C72.9901 27.2259 72.8253 27.3849 72.7031 27.5895C72.5838 27.794 72.5241 28.0298 72.5241 28.2969V32H70.7088ZM78.2972 32.1278C77.6239 32.1278 77.0444 31.9915 76.5586 31.7188C76.0756 31.4432 75.7035 31.054 75.4421 30.5511C75.1808 30.0455 75.0501 29.4474 75.0501 28.7571C75.0501 28.0838 75.1808 27.4929 75.4421 26.9844C75.7035 26.4759 76.0714 26.0795 76.5458 25.7955C77.0231 25.5114 77.5827 25.3693 78.2248 25.3693C78.6566 25.3693 79.0586 25.4389 79.4308 25.5781C79.8058 25.7145 80.1325 25.9205 80.4109 26.196C80.6921 26.4716 80.9109 26.8182 81.0671 27.2358C81.2234 27.6506 81.3015 28.1364 81.3015 28.6932V29.1918H75.7745V28.0668H79.5927C79.5927 27.8054 79.5359 27.5739 79.4222 27.3722C79.3086 27.1705 79.1509 27.0128 78.9492 26.8991C78.7504 26.7827 78.5188 26.7244 78.2546 26.7244C77.979 26.7244 77.7347 26.7884 77.5217 26.9162C77.3114 27.0412 77.1467 27.2102 77.0273 27.4233C76.908 27.6335 76.8469 27.8679 76.8441 28.1264V29.196C76.8441 29.5199 76.9038 29.7997 77.0231 30.0355C77.1452 30.2713 77.3171 30.4531 77.5387 30.581C77.7603 30.7088 78.0231 30.7727 78.3271 30.7727C78.5288 30.7727 78.7134 30.7443 78.881 30.6875C79.0487 30.6307 79.1921 30.5455 79.3114 30.4318C79.4308 30.3182 79.5217 30.179 79.5842 30.0142L81.2631 30.125C81.1779 30.5284 81.0032 30.8807 80.739 31.1818C80.4776 31.4801 80.1396 31.7131 79.7248 31.8807C79.3129 32.0455 78.837 32.1278 78.2972 32.1278ZM85.4691 32.1278C84.7958 32.1278 84.2163 31.9915 83.7305 31.7188C83.2475 31.4432 82.8754 31.054 82.614 30.5511C82.3526 30.0455 82.2219 29.4474 82.2219 28.7571C82.2219 28.0838 82.3526 27.4929 82.614 26.9844C82.8754 26.4759 83.2433 26.0795 83.7177 25.7955C84.195 25.5114 84.7546 25.3693 85.3967 25.3693C85.8285 25.3693 86.2305 25.4389 86.6026 25.5781C86.9776 25.7145 87.3043 25.9205 87.5827 26.196C87.864 26.4716 88.0827 26.8182 88.239 27.2358C88.3952 27.6506 88.4734 28.1364 88.4734 28.6932V29.1918H82.9464V28.0668H86.7646C86.7646 27.8054 86.7077 27.5739 86.5941 27.3722C86.4805 27.1705 86.3228 27.0128 86.1211 26.8991C85.9222 26.7827 85.6907 26.7244 85.4265 26.7244C85.1509 26.7244 84.9066 26.7884 84.6935 26.9162C84.4833 27.0412 84.3185 27.2102 84.1992 27.4233C84.0799 27.6335 84.0188 27.8679 84.016 28.1264V29.196C84.016 29.5199 84.0756 29.7997 84.195 30.0355C84.3171 30.2713 84.489 30.4531 84.7106 30.581C84.9322 30.7088 85.195 30.7727 85.4989 30.7727C85.7006 30.7727 85.8853 30.7443 86.0529 30.6875C86.2205 30.6307 86.364 30.5455 86.4833 30.4318C86.6026 30.3182 86.6935 30.179 86.756 30.0142L88.435 30.125C88.3498 30.5284 88.1751 30.8807 87.9109 31.1818C87.6495 31.4801 87.3114 31.7131 86.8967 31.8807C86.4847 32.0455 86.0089 32.1278 85.4691 32.1278ZM89.658 32V25.4545H91.418V26.5966H91.4862C91.6055 26.1903 91.8058 25.8835 92.087 25.6761C92.3683 25.4659 92.6921 25.3608 93.0586 25.3608C93.1495 25.3608 93.2475 25.3665 93.3526 25.3778C93.4577 25.3892 93.5501 25.4048 93.6296 25.4247V27.0355C93.5444 27.0099 93.4265 26.9872 93.2759 26.9673C93.1254 26.9474 92.9876 26.9375 92.8626 26.9375C92.5955 26.9375 92.3569 26.9957 92.1467 27.1122C91.9393 27.2259 91.7745 27.3849 91.6523 27.5895C91.533 27.794 91.4734 28.0298 91.4734 28.2969V32H89.658ZM105.08 26.3281H103.213C103.179 26.0866 103.11 25.8722 103.005 25.6847C102.9 25.4943 102.765 25.3324 102.6 25.1989C102.435 25.0653 102.245 24.9631 102.029 24.892C101.816 24.821 101.584 24.7855 101.334 24.7855C100.882 24.7855 100.489 24.8977 100.154 25.1222C99.8185 25.3437 99.5586 25.6676 99.3739 26.0938C99.1893 26.517 99.0969 27.0312 99.0969 27.6364C99.0969 28.2585 99.1893 28.7812 99.3739 29.2045C99.5614 29.6278 99.8228 29.9474 100.158 30.1634C100.493 30.3793 100.881 30.4872 101.321 30.4872C101.569 30.4872 101.797 30.4545 102.007 30.3892C102.221 30.3239 102.409 30.2287 102.574 30.1037C102.739 29.9759 102.875 29.821 102.983 29.6392C103.094 29.4574 103.171 29.25 103.213 29.017L105.08 29.0256C105.032 29.4261 104.911 29.8125 104.718 30.1847C104.527 30.554 104.27 30.8849 103.946 31.1776C103.625 31.4673 103.242 31.6974 102.796 31.8679C102.353 32.0355 101.851 32.1193 101.292 32.1193C100.513 32.1193 99.8171 31.9432 99.2035 31.5909C98.5927 31.2386 98.1097 30.7287 97.7546 30.0611C97.4023 29.3935 97.2262 28.5852 97.2262 27.6364C97.2262 26.6847 97.4052 25.875 97.7631 25.2074C98.1211 24.5398 98.6069 24.0312 99.2205 23.6818C99.8342 23.3295 100.525 23.1534 101.292 23.1534C101.797 23.1534 102.266 23.2244 102.698 23.3665C103.132 23.5085 103.517 23.7159 103.853 23.9886C104.188 24.2585 104.461 24.5895 104.671 24.9815C104.884 25.3736 105.02 25.8224 105.08 26.3281ZM109.352 32.1278C108.679 32.1278 108.099 31.9915 107.613 31.7188C107.13 31.4432 106.758 31.054 106.497 30.5511C106.235 30.0455 106.105 29.4474 106.105 28.7571C106.105 28.0838 106.235 27.4929 106.497 26.9844C106.758 26.4759 107.126 26.0795 107.6 25.7955C108.078 25.5114 108.637 25.3693 109.279 25.3693C109.711 25.3693 110.113 25.4389 110.485 25.5781C110.86 25.7145 111.187 25.9205 111.466 26.196C111.747 26.4716 111.966 26.8182 112.122 27.2358C112.278 27.6506 112.356 28.1364 112.356 28.6932V29.1918H106.829V28.0668H110.647C110.647 27.8054 110.591 27.5739 110.477 27.3722C110.363 27.1705 110.206 27.0128 110.004 26.8991C109.805 26.7827 109.574 26.7244 109.309 26.7244C109.034 26.7244 108.789 26.7884 108.576 26.9162C108.366 27.0412 108.201 27.2102 108.082 27.4233C107.963 27.6335 107.902 27.8679 107.899 28.1264V29.196C107.899 29.5199 107.958 29.7997 108.078 30.0355C108.2 30.2713 108.372 30.4531 108.593 30.581C108.815 30.7088 109.078 30.7727 109.382 30.7727C109.583 30.7727 109.768 30.7443 109.936 30.6875C110.103 30.6307 110.247 30.5455 110.366 30.4318C110.485 30.3182 110.576 30.179 110.639 30.0142L112.318 30.125C112.233 30.5284 112.058 30.8807 111.794 31.1818C111.532 31.4801 111.194 31.7131 110.779 31.8807C110.368 32.0455 109.892 32.1278 109.352 32.1278ZM115.356 28.2159V32H113.541V25.4545H115.271V26.6094H115.348C115.493 26.2287 115.735 25.9276 116.076 25.706C116.417 25.4815 116.831 25.3693 117.316 25.3693C117.771 25.3693 118.167 25.4688 118.505 25.6676C118.843 25.8665 119.106 26.1506 119.294 26.5199C119.481 26.8864 119.575 27.3239 119.575 27.8324V32H117.76V28.1562C117.762 27.7557 117.66 27.4432 117.453 27.2188C117.245 26.9915 116.96 26.8778 116.596 26.8778C116.352 26.8778 116.136 26.9304 115.949 27.0355C115.764 27.1406 115.619 27.294 115.514 27.4957C115.412 27.6946 115.359 27.9347 115.356 28.2159ZM124.487 25.4545V26.8182H120.545V25.4545H124.487ZM121.44 23.8864H123.256V29.9886C123.256 30.1562 123.281 30.2869 123.332 30.3807C123.384 30.4716 123.455 30.5355 123.545 30.5724C123.639 30.6094 123.747 30.6278 123.869 30.6278C123.955 30.6278 124.04 30.6207 124.125 30.6065C124.21 30.5895 124.276 30.5767 124.321 30.5682L124.607 31.919C124.516 31.9474 124.388 31.9801 124.223 32.017C124.058 32.0568 123.858 32.081 123.622 32.0895C123.185 32.1065 122.801 32.0483 122.472 31.9148C122.145 31.7812 121.891 31.5739 121.709 31.2926C121.527 31.0114 121.438 30.6562 121.44 30.2273V23.8864ZM128.582 32.1278C127.909 32.1278 127.33 31.9915 126.844 31.7188C126.361 31.4432 125.989 31.054 125.727 30.5511C125.466 30.0455 125.335 29.4474 125.335 28.7571C125.335 28.0838 125.466 27.4929 125.727 26.9844C125.989 26.4759 126.357 26.0795 126.831 25.7955C127.308 25.5114 127.868 25.3693 128.51 25.3693C128.942 25.3693 129.344 25.4389 129.716 25.5781C130.091 25.7145 130.418 25.9205 130.696 26.196C130.977 26.4716 131.196 26.8182 131.352 27.2358C131.509 27.6506 131.587 28.1364 131.587 28.6932V29.1918H126.06V28.0668H129.878C129.878 27.8054 129.821 27.5739 129.707 27.3722C129.594 27.1705 129.436 27.0128 129.234 26.8991C129.036 26.7827 128.804 26.7244 128.54 26.7244C128.264 26.7244 128.02 26.7884 127.807 26.9162C127.597 27.0412 127.432 27.2102 127.312 27.4233C127.193 27.6335 127.132 27.8679 127.129 28.1264V29.196C127.129 29.5199 127.189 29.7997 127.308 30.0355C127.43 30.2713 127.602 30.4531 127.824 30.581C128.045 30.7088 128.308 30.7727 128.612 30.7727C128.814 30.7727 128.999 30.7443 129.166 30.6875C129.334 30.6307 129.477 30.5455 129.597 30.4318C129.716 30.3182 129.807 30.179 129.869 30.0142L131.548 30.125C131.463 30.5284 131.288 30.8807 131.024 31.1818C130.763 31.4801 130.425 31.7131 130.01 31.8807C129.598 32.0455 129.122 32.1278 128.582 32.1278ZM132.771 32V25.4545H134.531V26.5966H134.599C134.719 26.1903 134.919 25.8835 135.2 25.6761C135.482 25.4659 135.805 25.3608 136.172 25.3608C136.263 25.3608 136.361 25.3665 136.466 25.3778C136.571 25.3892 136.663 25.4048 136.743 25.4247V27.0355C136.658 27.0099 136.54 26.9872 136.389 26.9673C136.239 26.9474 136.101 26.9375 135.976 26.9375C135.709 26.9375 135.47 26.9957 135.26 27.1122C135.053 27.2259 134.888 27.3849 134.766 27.5895C134.646 27.794 134.587 28.0298 134.587 28.2969V32H132.771Z" fill="white"/>
</svg>
