<svg width="131" height="40" viewBox="0 0 131 40" fill="none" xmlns="http://www.w3.org/2000/svg">
<mask id="mask0_1_23" style="mask-type:luminance" maskUnits="userSpaceOnUse" x="0" y="0" width="40" height="40">
<path d="M40 0H0V40H40V0Z" fill="white"/>
</mask>
<g mask="url(#mask0_1_23)">
<path d="M32.6667 0H7.33333C3.28325 0 0 3.28325 0 7.33333V32.6667C0 36.7168 3.28325 40 7.33333 40H32.6667C36.7168 40 40 36.7168 40 32.6667V7.33333C40 3.28325 36.7168 0 32.6667 0Z" fill="#561BFB"/>
<path d="M15.3331 0H32.6665C36.7165 0 39.9998 3.28325 39.9998 7.33333V16H22.6665C18.6164 16 15.3331 12.7167 15.3331 8.66667V0Z" fill="#7997FF"/>
<path d="M0 22.6675H8C12.0501 22.6675 15.3333 25.9507 15.3333 30.0008V40.0008H7.33333C3.28325 40.0008 0 36.7175 0 32.6675V22.6675Z" fill="#7240FF"/>
<path fill-rule="evenodd" clip-rule="evenodd" d="M19.0646 22.0604C19.0834 22.045 19.1022 22.0295 19.1207 22.0137L19.0646 22.0604Z" fill="#4310D3"/>
<path d="M8.3798 24.1711C9.01121 28.7201 13.2451 31.8912 17.8364 31.254C19.0361 31.0874 20.1415 30.6774 21.1087 30.0813L19.3545 24.4905L19.3169 24.5551C18.8585 25.3201 18.0663 25.8795 17.1089 26.0123C15.4393 26.2441 13.8997 25.091 13.6701 23.4368C13.4405 21.7825 14.6079 20.2537 16.2774 20.022C17.2403 19.8883 18.1598 20.2089 18.8098 20.827L18.9474 14.9979C17.8744 14.7034 16.7238 14.6174 15.5499 14.7804C10.9586 15.4176 7.74838 19.622 8.3798 24.1711Z" fill="#4310D3"/>
<path fill-rule="evenodd" clip-rule="evenodd" d="M19.355 24.4913L21.1092 30.0821C22.2475 29.3804 23.1944 28.4211 23.8783 27.2978L30.0367 15.7383C30.4375 14.9861 30.1652 14.0516 29.4231 13.6324C27.6227 12.6154 25.338 13.2885 24.3765 15.1191L23.0743 17.5984L23.233 17.7874L20.4898 22.491L19.355 24.4913Z" fill="#4310D3"/>
<path fill-rule="evenodd" clip-rule="evenodd" d="M23.074 17.5983L32.9803 28.1139C33.5788 28.7492 33.5663 29.7446 32.952 30.3646C31.5097 31.8202 29.1462 31.7838 27.7495 30.2844L20.4895 22.4909L18.81 20.8277L18.9475 14.9986C20.64 15.4629 22.1393 16.4456 23.2327 17.7874L23.074 17.5983Z" fill="#4310D3"/>
<path fill-rule="evenodd" clip-rule="evenodd" d="M17.9473 20.3836C17.9661 20.3683 17.9848 20.3527 18.0034 20.3369L17.9473 20.3836Z" fill="#EEEEEE"/>
<path d="M8.5133 21.1132C8.97088 25.683 13.0808 29.0132 17.693 28.5513C18.8983 28.4307 20.0184 28.063 21.0077 27.5042L19.4678 21.8506L19.4277 21.9137C18.9405 22.6607 18.1276 23.1895 17.1658 23.2858C15.4886 23.4538 13.9941 22.2428 13.8277 20.581C13.6613 18.9193 14.886 17.436 16.5632 17.2681C17.5305 17.1713 18.4371 17.5266 19.0632 18.169L19.4228 12.3494C18.3618 12.0143 17.2153 11.8845 16.036 12.0025C11.4237 12.4644 8.05573 16.5434 8.5133 21.1132Z" fill="white"/>
<path fill-rule="evenodd" clip-rule="evenodd" d="M19.4667 21.8509L21.0065 27.5045C22.1708 26.8468 23.1535 25.9243 23.8798 24.8278L30.4743 13.5115C30.9034 12.775 30.6669 11.8308 29.9414 11.3837C28.181 10.2988 25.8723 10.8844 24.8417 12.677L23.4459 15.1049L23.5974 15.2998L20.677 19.8954L19.4667 21.8509Z" fill="white"/>
<path fill-rule="evenodd" clip-rule="evenodd" d="M23.4467 15.1057L32.9451 25.9911C33.519 26.6488 33.4685 27.6429 32.831 28.2391C31.3344 29.6386 28.9739 29.5122 27.6354 27.9607L20.6778 19.8962L19.0628 18.17L19.4224 12.3504C21.0959 12.879 22.5567 13.9182 23.5981 15.3005L23.4467 15.1057Z" fill="white"/>
</g>
<path d="M50.2628 17H48.2855L51.2983 8.27273H53.6761L56.6847 17H54.7074L52.5213 10.267H52.4531L50.2628 17ZM50.1392 13.5696H54.8097V15.0099H50.1392V13.5696ZM59.5163 8.27273V17H57.701V8.27273H59.5163ZM60.9705 19.4545V10.4545H62.7603V11.554H62.8413C62.9208 11.3778 63.0359 11.1989 63.1864 11.017C63.3398 10.8324 63.5387 10.679 63.783 10.5568C64.0302 10.4318 64.337 10.3693 64.7035 10.3693C65.1808 10.3693 65.6211 10.4943 66.0245 10.7443C66.4279 10.9915 66.7504 11.3651 66.9918 11.8651C67.2333 12.3622 67.354 12.9858 67.354 13.7358C67.354 14.4659 67.2362 15.0824 67.0004 15.5852C66.7674 16.0852 66.4492 16.4645 66.0458 16.723C65.6452 16.9787 65.1964 17.1065 64.6992 17.1065C64.3469 17.1065 64.0472 17.0483 63.8001 16.9318C63.5558 16.8153 63.3555 16.669 63.1992 16.4929C63.043 16.3139 62.9237 16.1335 62.8413 15.9517H62.7859V19.4545H60.9705ZM62.7475 13.7273C62.7475 14.1165 62.8015 14.456 62.9094 14.7457C63.0174 15.0355 63.1737 15.2614 63.3782 15.4233C63.5827 15.5824 63.8313 15.6619 64.1239 15.6619C64.4194 15.6619 64.6694 15.581 64.8739 15.419C65.0785 15.2543 65.2333 15.027 65.3384 14.7372C65.4464 14.4446 65.5004 14.108 65.5004 13.7273C65.5004 13.3494 65.4478 13.017 65.3427 12.7301C65.2376 12.4432 65.0827 12.2187 64.8782 12.0568C64.6737 11.8949 64.4222 11.8139 64.1239 11.8139C63.8285 11.8139 63.5785 11.892 63.3739 12.0483C63.1722 12.2045 63.0174 12.4261 62.9094 12.7131C62.8015 13 62.7475 13.3381 62.7475 13.7273ZM70.3796 13.2159V17H68.5643V8.27273H70.3285V11.6094H70.4052C70.5529 11.223 70.7915 10.9205 71.1211 10.7017C71.4506 10.4801 71.864 10.3693 72.3612 10.3693C72.8157 10.3693 73.212 10.4688 73.5501 10.6676C73.891 10.8636 74.1552 11.1463 74.3427 11.5156C74.533 11.8821 74.6268 12.321 74.6239 12.8324V17H72.8086V13.1562C72.8114 12.7528 72.7092 12.4389 72.5018 12.2145C72.2972 11.9901 72.0103 11.8778 71.641 11.8778C71.3938 11.8778 71.1751 11.9304 70.9847 12.0355C70.7972 12.1406 70.6495 12.294 70.5415 12.4957C70.4364 12.6946 70.3825 12.9347 70.3796 13.2159ZM77.919 17.1236C77.5014 17.1236 77.1293 17.0511 76.8026 16.9062C76.4759 16.7585 76.2173 16.5412 76.027 16.2543C75.8395 15.9645 75.7457 15.6037 75.7457 15.1719C75.7457 14.8082 75.8125 14.5028 75.946 14.2557C76.0795 14.0085 76.2614 13.8097 76.4915 13.6591C76.7216 13.5085 76.983 13.3949 77.2756 13.3182C77.571 13.2415 77.8807 13.1875 78.2045 13.1562C78.5852 13.1165 78.892 13.0795 79.125 13.0455C79.358 13.0085 79.527 12.9545 79.6321 12.8835C79.7372 12.8125 79.7898 12.7074 79.7898 12.5682V12.5426C79.7898 12.2727 79.7045 12.0639 79.5341 11.9162C79.3665 11.7685 79.1278 11.6946 78.8182 11.6946C78.4915 11.6946 78.2315 11.767 78.0384 11.9119C77.8452 12.054 77.7173 12.233 77.6548 12.4489L75.9759 12.3125C76.0611 11.9148 76.2287 11.571 76.4787 11.2812C76.7287 10.9886 77.0511 10.7642 77.446 10.608C77.8438 10.4489 78.304 10.3693 78.8267 10.3693C79.1903 10.3693 79.5384 10.4119 79.8707 10.4972C80.206 10.5824 80.5028 10.7145 80.7614 10.8935C81.0227 11.0724 81.2287 11.3026 81.3793 11.5838C81.5298 11.8622 81.6051 12.196 81.6051 12.5852V17H79.8835V16.0923H79.8324C79.7273 16.2969 79.5866 16.4773 79.4105 16.6335C79.2344 16.7869 79.0227 16.9077 78.7756 16.9957C78.5284 17.081 78.2429 17.1236 77.919 17.1236ZM78.4389 15.8707C78.706 15.8707 78.9418 15.8182 79.1463 15.7131C79.3509 15.6051 79.5114 15.4602 79.6278 15.2784C79.7443 15.0966 79.8026 14.8906 79.8026 14.6605V13.9659C79.7457 14.0028 79.6676 14.0369 79.5682 14.0682C79.4716 14.0966 79.3622 14.1236 79.2401 14.1491C79.1179 14.1719 78.9957 14.1932 78.8736 14.2131C78.7514 14.2301 78.6406 14.2457 78.5412 14.2599C78.3281 14.2912 78.142 14.3409 77.983 14.4091C77.8239 14.4773 77.7003 14.5696 77.6122 14.6861C77.5241 14.7997 77.4801 14.9418 77.4801 15.1122C77.4801 15.3594 77.5696 15.5483 77.7486 15.679C77.9304 15.8068 78.1605 15.8707 78.4389 15.8707Z" fill="black"/>
<path d="M56.4588 26.3281H54.5923C54.5582 26.0866 54.4886 25.8722 54.3835 25.6847C54.2784 25.4943 54.1435 25.3324 53.9787 25.1989C53.8139 25.0653 53.6236 24.9631 53.4077 24.892C53.1946 24.821 52.9631 24.7855 52.7131 24.7855C52.2614 24.7855 51.8679 24.8977 51.5327 25.1222C51.1974 25.3437 50.9375 25.6676 50.7528 26.0938C50.5682 26.517 50.4759 27.0312 50.4759 27.6364C50.4759 28.2585 50.5682 28.7812 50.7528 29.2045C50.9403 29.6278 51.2017 29.9474 51.5369 30.1634C51.8722 30.3793 52.2599 30.4872 52.7003 30.4872C52.9474 30.4872 53.1761 30.4545 53.3864 30.3892C53.5994 30.3239 53.7884 30.2287 53.9531 30.1037C54.1179 29.9759 54.2543 29.821 54.3622 29.6392C54.473 29.4574 54.5497 29.25 54.5923 29.017L56.4588 29.0256C56.4105 29.4261 56.2898 29.8125 56.0966 30.1847C55.9063 30.554 55.6491 30.8849 55.3253 31.1776C55.0043 31.4673 54.6207 31.6974 54.1747 31.8679C53.7315 32.0355 53.2301 32.1193 52.6705 32.1193C51.892 32.1193 51.196 31.9432 50.5824 31.5909C49.9716 31.2386 49.4886 30.7287 49.1335 30.0611C48.7812 29.3935 48.6051 28.5852 48.6051 27.6364C48.6051 26.6847 48.7841 25.875 49.142 25.2074C49.5 24.5398 49.9858 24.0312 50.5994 23.6818C51.2131 23.3295 51.9034 23.1534 52.6705 23.1534C53.1761 23.1534 53.6449 23.2244 54.0767 23.3665C54.5114 23.5085 54.8963 23.7159 55.2315 23.9886C55.5668 24.2585 55.8395 24.5895 56.0497 24.9815C56.2628 25.3736 56.3991 25.8224 56.4588 26.3281ZM59.6143 32.1236C59.1967 32.1236 58.8246 32.0511 58.4979 31.9062C58.1712 31.7585 57.9126 31.5412 57.7223 31.2543C57.5348 30.9645 57.4411 30.6037 57.4411 30.1719C57.4411 29.8082 57.5078 29.5028 57.6413 29.2557C57.7749 29.0085 57.9567 28.8097 58.1868 28.6591C58.4169 28.5085 58.6783 28.3949 58.9709 28.3182C59.2663 28.2415 59.576 28.1875 59.8999 28.1562C60.2805 28.1165 60.5874 28.0795 60.8203 28.0455C61.0533 28.0085 61.2223 27.9545 61.3274 27.8835C61.4325 27.8125 61.4851 27.7074 61.4851 27.5682V27.5426C61.4851 27.2727 61.3999 27.0639 61.2294 26.9162C61.0618 26.7685 60.8232 26.6946 60.5135 26.6946C60.1868 26.6946 59.9268 26.767 59.7337 26.9119C59.5405 27.054 59.4126 27.233 59.3501 27.4489L57.6712 27.3125C57.7564 26.9148 57.924 26.571 58.174 26.2812C58.424 25.9886 58.7464 25.7642 59.1413 25.608C59.5391 25.4489 59.9993 25.3693 60.522 25.3693C60.8857 25.3693 61.2337 25.4119 61.5661 25.4972C61.9013 25.5824 62.1982 25.7145 62.4567 25.8935C62.718 26.0724 62.924 26.3026 63.0746 26.5838C63.2251 26.8622 63.3004 27.196 63.3004 27.5852V32H61.5788V31.0923H61.5277C61.4226 31.2969 61.282 31.4773 61.1058 31.6335C60.9297 31.7869 60.718 31.9077 60.4709 31.9957C60.2237 32.081 59.9382 32.1236 59.6143 32.1236ZM60.1342 30.8707C60.4013 30.8707 60.6371 30.8182 60.8416 30.7131C61.0462 30.6051 61.2067 30.4602 61.3232 30.2784C61.4396 30.0966 61.4979 29.8906 61.4979 29.6605V28.9659C61.4411 29.0028 61.3629 29.0369 61.2635 29.0682C61.1669 29.0966 61.0575 29.1236 60.9354 29.1491C60.8132 29.1719 60.6911 29.1932 60.5689 29.2131C60.4467 29.2301 60.3359 29.2457 60.2365 29.2599C60.0234 29.2912 59.8374 29.3409 59.6783 29.4091C59.5192 29.4773 59.3956 29.5696 59.3075 29.6861C59.2195 29.7997 59.1754 29.9418 59.1754 30.1122C59.1754 30.3594 59.2649 30.5483 59.4439 30.679C59.6257 30.8068 59.8558 30.8707 60.1342 30.8707ZM64.7088 32V25.4545H66.4688V26.5966H66.5369C66.6563 26.1903 66.8565 25.8835 67.1378 25.6761C67.419 25.4659 67.7429 25.3608 68.1094 25.3608C68.2003 25.3608 68.2983 25.3665 68.4034 25.3778C68.5085 25.3892 68.6009 25.4048 68.6804 25.4247V27.0355C68.5952 27.0099 68.4773 26.9872 68.3267 26.9673C68.1761 26.9474 68.0384 26.9375 67.9134 26.9375C67.6463 26.9375 67.4077 26.9957 67.1974 27.1122C66.9901 27.2259 66.8253 27.3849 66.7031 27.5895C66.5838 27.794 66.5241 28.0298 66.5241 28.2969V32H64.7088ZM72.2972 32.1278C71.6239 32.1278 71.0444 31.9915 70.5586 31.7188C70.0756 31.4432 69.7035 31.054 69.4421 30.5511C69.1808 30.0455 69.0501 29.4474 69.0501 28.7571C69.0501 28.0838 69.1808 27.4929 69.4421 26.9844C69.7035 26.4759 70.0714 26.0795 70.5458 25.7955C71.0231 25.5114 71.5827 25.3693 72.2248 25.3693C72.6566 25.3693 73.0586 25.4389 73.4308 25.5781C73.8058 25.7145 74.1325 25.9205 74.4109 26.196C74.6921 26.4716 74.9109 26.8182 75.0671 27.2358C75.2234 27.6506 75.3015 28.1364 75.3015 28.6932V29.1918H69.7745V28.0668H73.5927C73.5927 27.8054 73.5359 27.5739 73.4222 27.3722C73.3086 27.1705 73.1509 27.0128 72.9492 26.8991C72.7504 26.7827 72.5188 26.7244 72.2546 26.7244C71.979 26.7244 71.7347 26.7884 71.5217 26.9162C71.3114 27.0412 71.1467 27.2102 71.0273 27.4233C70.908 27.6335 70.8469 27.8679 70.8441 28.1264V29.196C70.8441 29.5199 70.9038 29.7997 71.0231 30.0355C71.1452 30.2713 71.3171 30.4531 71.5387 30.581C71.7603 30.7088 72.0231 30.7727 72.3271 30.7727C72.5288 30.7727 72.7134 30.7443 72.881 30.6875C73.0487 30.6307 73.1921 30.5455 73.3114 30.4318C73.4308 30.3182 73.5217 30.179 73.5842 30.0142L75.2631 30.125C75.1779 30.5284 75.0032 30.8807 74.739 31.1818C74.4776 31.4801 74.1396 31.7131 73.7248 31.8807C73.3129 32.0455 72.837 32.1278 72.2972 32.1278ZM79.4691 32.1278C78.7958 32.1278 78.2163 31.9915 77.7305 31.7188C77.2475 31.4432 76.8754 31.054 76.614 30.5511C76.3526 30.0455 76.2219 29.4474 76.2219 28.7571C76.2219 28.0838 76.3526 27.4929 76.614 26.9844C76.8754 26.4759 77.2433 26.0795 77.7177 25.7955C78.195 25.5114 78.7546 25.3693 79.3967 25.3693C79.8285 25.3693 80.2305 25.4389 80.6026 25.5781C80.9776 25.7145 81.3043 25.9205 81.5827 26.196C81.864 26.4716 82.0827 26.8182 82.239 27.2358C82.3952 27.6506 82.4734 28.1364 82.4734 28.6932V29.1918H76.9464V28.0668H80.7646C80.7646 27.8054 80.7077 27.5739 80.5941 27.3722C80.4805 27.1705 80.3228 27.0128 80.1211 26.8991C79.9222 26.7827 79.6907 26.7244 79.4265 26.7244C79.1509 26.7244 78.9066 26.7884 78.6935 26.9162C78.4833 27.0412 78.3185 27.2102 78.1992 27.4233C78.0799 27.6335 78.0188 27.8679 78.016 28.1264V29.196C78.016 29.5199 78.0756 29.7997 78.195 30.0355C78.3171 30.2713 78.489 30.4531 78.7106 30.581C78.9322 30.7088 79.195 30.7727 79.4989 30.7727C79.7006 30.7727 79.8853 30.7443 80.0529 30.6875C80.2205 30.6307 80.364 30.5455 80.4833 30.4318C80.6026 30.3182 80.6935 30.179 80.756 30.0142L82.435 30.125C82.3498 30.5284 82.1751 30.8807 81.9109 31.1818C81.6495 31.4801 81.3114 31.7131 80.8967 31.8807C80.4847 32.0455 80.0089 32.1278 79.4691 32.1278ZM83.658 32V25.4545H85.418V26.5966H85.4862C85.6055 26.1903 85.8058 25.8835 86.087 25.6761C86.3683 25.4659 86.6921 25.3608 87.0586 25.3608C87.1495 25.3608 87.2475 25.3665 87.3526 25.3778C87.4577 25.3892 87.5501 25.4048 87.6296 25.4247V27.0355C87.5444 27.0099 87.4265 26.9872 87.2759 26.9673C87.1254 26.9474 86.9876 26.9375 86.8626 26.9375C86.5955 26.9375 86.3569 26.9957 86.1467 27.1122C85.9393 27.2259 85.7745 27.3849 85.6523 27.5895C85.533 27.794 85.4734 28.0298 85.4734 28.2969V32H83.658ZM99.0799 26.3281H97.2134C97.1793 26.0866 97.1097 25.8722 97.0046 25.6847C96.8995 25.4943 96.7646 25.3324 96.5998 25.1989C96.435 25.0653 96.2447 24.9631 96.0288 24.892C95.8157 24.821 95.5842 24.7855 95.3342 24.7855C94.8825 24.7855 94.489 24.8977 94.1538 25.1222C93.8185 25.3437 93.5586 25.6676 93.3739 26.0938C93.1893 26.517 93.0969 27.0312 93.0969 27.6364C93.0969 28.2585 93.1893 28.7812 93.3739 29.2045C93.5614 29.6278 93.8228 29.9474 94.158 30.1634C94.4933 30.3793 94.881 30.4872 95.3214 30.4872C95.5685 30.4872 95.7972 30.4545 96.0075 30.3892C96.2205 30.3239 96.4094 30.2287 96.5742 30.1037C96.739 29.9759 96.8754 29.821 96.9833 29.6392C97.0941 29.4574 97.1708 29.25 97.2134 29.017L99.0799 29.0256C99.0316 29.4261 98.9109 29.8125 98.7177 30.1847C98.5273 30.554 98.2702 30.8849 97.9464 31.1776C97.6254 31.4673 97.2418 31.6974 96.7958 31.8679C96.3526 32.0355 95.8512 32.1193 95.2915 32.1193C94.5131 32.1193 93.8171 31.9432 93.2035 31.5909C92.5927 31.2386 92.1097 30.7287 91.7546 30.0611C91.4023 29.3935 91.2262 28.5852 91.2262 27.6364C91.2262 26.6847 91.4052 25.875 91.7631 25.2074C92.1211 24.5398 92.6069 24.0312 93.2205 23.6818C93.8342 23.3295 94.5245 23.1534 95.2915 23.1534C95.7972 23.1534 96.266 23.2244 96.6978 23.3665C97.1325 23.5085 97.5174 23.7159 97.8526 23.9886C98.1879 24.2585 98.4606 24.5895 98.6708 24.9815C98.8839 25.3736 99.0202 25.8224 99.0799 26.3281ZM103.352 32.1278C102.679 32.1278 102.099 31.9915 101.613 31.7188C101.13 31.4432 100.758 31.054 100.497 30.5511C100.235 30.0455 100.105 29.4474 100.105 28.7571C100.105 28.0838 100.235 27.4929 100.497 26.9844C100.758 26.4759 101.126 26.0795 101.6 25.7955C102.078 25.5114 102.637 25.3693 103.279 25.3693C103.711 25.3693 104.113 25.4389 104.485 25.5781C104.86 25.7145 105.187 25.9205 105.466 26.196C105.747 26.4716 105.966 26.8182 106.122 27.2358C106.278 27.6506 106.356 28.1364 106.356 28.6932V29.1918H100.829V28.0668H104.647C104.647 27.8054 104.591 27.5739 104.477 27.3722C104.363 27.1705 104.206 27.0128 104.004 26.8991C103.805 26.7827 103.574 26.7244 103.309 26.7244C103.034 26.7244 102.789 26.7884 102.576 26.9162C102.366 27.0412 102.201 27.2102 102.082 27.4233C101.963 27.6335 101.902 27.8679 101.899 28.1264V29.196C101.899 29.5199 101.958 29.7997 102.078 30.0355C102.2 30.2713 102.372 30.4531 102.593 30.581C102.815 30.7088 103.078 30.7727 103.382 30.7727C103.583 30.7727 103.768 30.7443 103.936 30.6875C104.103 30.6307 104.247 30.5455 104.366 30.4318C104.485 30.3182 104.576 30.179 104.639 30.0142L106.318 30.125C106.233 30.5284 106.058 30.8807 105.794 31.1818C105.532 31.4801 105.194 31.7131 104.779 31.8807C104.368 32.0455 103.892 32.1278 103.352 32.1278ZM109.356 28.2159V32H107.541V25.4545H109.271V26.6094H109.348C109.493 26.2287 109.735 25.9276 110.076 25.706C110.417 25.4815 110.831 25.3693 111.316 25.3693C111.771 25.3693 112.167 25.4688 112.505 25.6676C112.843 25.8665 113.106 26.1506 113.294 26.5199C113.481 26.8864 113.575 27.3239 113.575 27.8324V32H111.76V28.1562C111.762 27.7557 111.66 27.4432 111.453 27.2188C111.245 26.9915 110.96 26.8778 110.596 26.8778C110.352 26.8778 110.136 26.9304 109.949 27.0355C109.764 27.1406 109.619 27.294 109.514 27.4957C109.412 27.6946 109.359 27.9347 109.356 28.2159ZM118.487 25.4545V26.8182H114.545V25.4545H118.487ZM115.44 23.8864H117.256V29.9886C117.256 30.1562 117.281 30.2869 117.332 30.3807C117.384 30.4716 117.455 30.5355 117.545 30.5724C117.639 30.6094 117.747 30.6278 117.869 30.6278C117.955 30.6278 118.04 30.6207 118.125 30.6065C118.21 30.5895 118.276 30.5767 118.321 30.5682L118.607 31.919C118.516 31.9474 118.388 31.9801 118.223 32.017C118.058 32.0568 117.858 32.081 117.622 32.0895C117.185 32.1065 116.801 32.0483 116.472 31.9148C116.145 31.7812 115.891 31.5739 115.709 31.2926C115.527 31.0114 115.438 30.6562 115.44 30.2273V23.8864ZM122.582 32.1278C121.909 32.1278 121.33 31.9915 120.844 31.7188C120.361 31.4432 119.989 31.054 119.727 30.5511C119.466 30.0455 119.335 29.4474 119.335 28.7571C119.335 28.0838 119.466 27.4929 119.727 26.9844C119.989 26.4759 120.357 26.0795 120.831 25.7955C121.308 25.5114 121.868 25.3693 122.51 25.3693C122.942 25.3693 123.344 25.4389 123.716 25.5781C124.091 25.7145 124.418 25.9205 124.696 26.196C124.977 26.4716 125.196 26.8182 125.352 27.2358C125.509 27.6506 125.587 28.1364 125.587 28.6932V29.1918H120.06V28.0668H123.878C123.878 27.8054 123.821 27.5739 123.707 27.3722C123.594 27.1705 123.436 27.0128 123.234 26.8991C123.036 26.7827 122.804 26.7244 122.54 26.7244C122.264 26.7244 122.02 26.7884 121.807 26.9162C121.597 27.0412 121.432 27.2102 121.312 27.4233C121.193 27.6335 121.132 27.8679 121.129 28.1264V29.196C121.129 29.5199 121.189 29.7997 121.308 30.0355C121.43 30.2713 121.602 30.4531 121.824 30.581C122.045 30.7088 122.308 30.7727 122.612 30.7727C122.814 30.7727 122.999 30.7443 123.166 30.6875C123.334 30.6307 123.477 30.5455 123.597 30.4318C123.716 30.3182 123.807 30.179 123.869 30.0142L125.548 30.125C125.463 30.5284 125.288 30.8807 125.024 31.1818C124.763 31.4801 124.425 31.7131 124.01 31.8807C123.598 32.0455 123.122 32.1278 122.582 32.1278ZM126.771 32V25.4545H128.531V26.5966H128.599C128.719 26.1903 128.919 25.8835 129.2 25.6761C129.482 25.4659 129.805 25.3608 130.172 25.3608C130.263 25.3608 130.361 25.3665 130.466 25.3778C130.571 25.3892 130.663 25.4048 130.743 25.4247V27.0355C130.658 27.0099 130.54 26.9872 130.389 26.9673C130.239 26.9474 130.101 26.9375 129.976 26.9375C129.709 26.9375 129.47 26.9957 129.26 27.1122C129.053 27.2259 128.888 27.3849 128.766 27.5895C128.646 27.794 128.587 28.0298 128.587 28.2969V32H126.771Z" fill="black"/>
</svg>
