<svg width="48" height="48" viewBox="0 0 48 48" fill="none" xmlns="http://www.w3.org/2000/svg">
<mask id="mask0_74_45" style="mask-type:luminance" maskUnits="userSpaceOnUse" x="0" y="0" width="48" height="48">
<path d="M48 0H0V48H48V0Z" fill="white"/>
</mask>
<g mask="url(#mask0_74_45)">
<path d="M39.2 0H8.8C3.9399 0 0 3.9399 0 8.8V39.2C0 44.0602 3.9399 48 8.8 48H39.2C44.0602 48 48 44.0602 48 39.2V8.8C48 3.9399 44.0602 0 39.2 0Z" fill="#561BFB"/>
<path d="M18.3998 0H39.1999C44.0599 0 47.9998 3.9399 47.9998 8.8V19.2H27.1999C22.3397 19.2 18.3998 15.26 18.3998 10.4V0Z" fill="#7997FF"/>
<path d="M0 27.201H9.6C14.4601 27.201 18.4 31.1408 18.4 36.001V48.001H8.8C3.9399 48.001 0 44.061 0 39.201V27.201Z" fill="#7240FF"/>
<path fill-rule="evenodd" clip-rule="evenodd" d="M22.8774 26.4718C22.9 26.4535 22.9226 26.4352 22.9448 26.4165L22.8774 26.4718Z" fill="#4310D3"/>
<path d="M10.0558 29.0053C10.8135 34.4641 15.8942 38.2694 21.4037 37.5048C22.8434 37.3049 24.1698 36.8129 25.3305 36.0976L23.2254 29.3886L23.1803 29.4661C22.6302 30.3841 21.6796 31.0554 20.5307 31.2148C18.5272 31.4929 16.6797 30.1092 16.4042 28.1242C16.1286 26.139 17.5295 24.3044 19.5329 24.0264C20.6884 23.866 21.7918 24.2507 22.5718 24.9924L22.7369 17.9975C21.4493 17.6441 20.0686 17.5409 18.6599 17.7365C13.1504 18.5011 9.2981 23.5464 10.0558 29.0053Z" fill="#4310D3"/>
<path fill-rule="evenodd" clip-rule="evenodd" d="M23.226 29.3896L25.331 36.0985C26.697 35.2565 27.8332 34.1053 28.6539 32.7574L36.044 18.886C36.525 17.9833 36.1982 16.8619 35.3077 16.3589C33.1472 15.1385 30.4056 15.9462 29.2518 18.1429L27.6891 21.1181L27.8796 21.3449L24.5877 26.9892L23.226 29.3896Z" fill="#4310D3"/>
<path fill-rule="evenodd" clip-rule="evenodd" d="M27.6888 21.118L39.5764 33.7367C40.2946 34.4991 40.2796 35.6936 39.5424 36.4376C37.8117 38.1843 34.9755 38.1406 33.2994 36.3413L24.5874 26.9891L22.572 24.9933L22.737 17.9984C24.768 18.5555 26.5672 19.7348 27.8793 21.3449L27.6888 21.118Z" fill="#4310D3"/>
<path fill-rule="evenodd" clip-rule="evenodd" d="M21.5367 24.4595C21.5593 24.4414 21.5817 24.423 21.6041 24.4043L21.5367 24.4595Z" fill="#EEEEEE"/>
<path d="M10.216 25.3359C10.7651 30.8196 15.697 34.8159 21.2316 34.2616C22.678 34.1169 24.0221 33.6756 25.2093 33.0051L23.3614 26.2207L23.3133 26.2965C22.7286 27.1929 21.7531 27.8274 20.599 27.943C18.5863 28.1446 16.7929 26.6914 16.5933 24.6972C16.3936 22.7032 17.8632 20.9232 19.8759 20.7217C21.0366 20.6056 22.1245 21.0319 22.8759 21.8028L23.3074 14.8193C22.0342 14.4172 20.6584 14.2614 19.2432 14.403C13.7085 14.9573 9.66687 19.8521 10.216 25.3359Z" fill="white"/>
<path fill-rule="evenodd" clip-rule="evenodd" d="M23.36 26.2211L25.2077 33.0054C26.6049 32.2162 27.7841 31.1092 28.6557 29.7934L36.5691 16.2138C37.084 15.33 36.8002 14.197 35.9296 13.6605C33.8171 12.3586 31.0467 13.0613 29.81 15.2124L28.135 18.1259L28.3168 18.3598L24.8123 23.8745L23.36 26.2211Z" fill="white"/>
<path fill-rule="evenodd" clip-rule="evenodd" d="M28.136 18.1269L39.5341 31.1893C40.2228 31.9786 40.1622 33.1715 39.3972 33.8869C37.6013 35.5663 34.7687 35.4147 33.1625 33.5529L24.8134 23.8755L22.8754 21.804L23.3069 14.8205C25.3151 15.4548 27.068 16.7019 28.3177 18.3606L28.136 18.1269Z" fill="white"/>
</g>
</svg>
