<svg width="131.000000" height="40.000000" viewBox="0 0 131 40" fill="none" xmlns="http://www.w3.org/2000/svg" xmlns:xlink="http://www.w3.org/1999/xlink">
	<desc>
			Created with Pixso.
	</desc>
	<defs/>
	<rect width="131.000000" height="40.000000" fill="#FFFFFF" fill-opacity="0"/>
	<mask id="mask1_6" mask-type="alpha" maskUnits="userSpaceOnUse" x="0.000000" y="0.000000" width="40.000000" height="40.000000">
		<path d="M0 0L40 0L40 40L0 40L0 0Z" fill="#000000" fill-opacity="1.000000" fill-rule="evenodd"/>
	</mask>
	<g mask="url(#mask1_6)">
		<path d="M32.66 0L7.33 0C3.28 0 0 3.28 0 7.33L0 32.66C0 36.71 3.28 40 7.33 40L32.66 40C36.71 40 40 36.71 40 32.66L40 7.33C40 3.28 36.71 0 32.66 0Z" fill="#561BFB" fill-opacity="1.000000" fill-rule="nonzero"/>
		<path d="M15.33 0L32.66 0C36.71 0 39.99 3.28 39.99 7.33L39.99 16L22.66 16C18.61 16 15.33 12.71 15.33 8.66L15.33 0Z" fill="#7997FF" fill-opacity="1.000000" fill-rule="nonzero"/>
		<path d="M0 22.66L8 22.66C12.05 22.66 15.33 25.95 15.33 30L15.33 40L7.33 40C3.28 40 0 36.71 0 32.66L0 22.66Z" fill="#7240FF" fill-opacity="1.000000" fill-rule="nonzero"/>
		<path d="M19.06 22.06C19.08 22.04 19.1 22.02 19.12 22.01L19.06 22.06Z" fill="#4310D3" fill-opacity="1.000000" fill-rule="evenodd"/>
		<path d="M8.37 24.17C9.01 28.72 13.24 31.89 17.83 31.25C19.03 31.08 20.14 30.67 21.1 30.08L19.35 24.49L19.31 24.55C18.85 25.32 18.06 25.87 17.1 26.01C15.43 26.24 13.89 25.09 13.67 23.43C13.44 21.78 14.6 20.25 16.27 20.02C17.24 19.88 18.15 20.2 18.8 20.82L18.94 14.99C17.87 14.7 16.72 14.61 15.54 14.78C10.95 15.41 7.74 19.62 8.37 24.17Z" fill="#4310D3" fill-opacity="1.000000" fill-rule="nonzero"/>
		<path d="M19.35 24.49L21.1 30.08C22.24 29.38 23.19 28.42 23.87 27.29L30.03 15.73C30.43 14.98 30.16 14.05 29.42 13.63C27.62 12.61 25.33 13.28 24.37 15.11L23.07 17.59L23.23 17.78L20.48 22.49L19.35 24.49Z" fill="#4310D3" fill-opacity="1.000000" fill-rule="evenodd"/>
		<path d="M23.07 17.59L32.98 28.11C33.57 28.74 33.56 29.74 32.95 30.36C31.5 31.82 29.14 31.78 27.74 30.28L20.48 22.49L18.81 20.82L18.94 14.99C20.64 15.46 22.13 16.44 23.23 17.78L23.07 17.59Z" fill="#4310D3" fill-opacity="1.000000" fill-rule="evenodd"/>
		<path d="M17.94 20.38C17.96 20.36 17.98 20.35 18 20.33L17.94 20.38Z" fill="#EEEEEE" fill-opacity="1.000000" fill-rule="evenodd"/>
		<path d="M8.51 21.11C8.97 25.68 13.08 29.01 17.69 28.55C18.89 28.43 20.01 28.06 21 27.5L19.46 21.85L19.42 21.91C18.94 22.66 18.12 23.18 17.16 23.28C15.48 23.45 13.99 22.24 13.82 20.58C13.66 18.91 14.88 17.43 16.56 17.26C17.53 17.17 18.43 17.52 19.06 18.16L19.42 12.34C18.36 12.01 17.21 11.88 16.03 12C11.42 12.46 8.05 16.54 8.51 21.11Z" fill="#FFFFFF" fill-opacity="1.000000" fill-rule="nonzero"/>
		<path d="M19.46 21.85L21 27.5C22.17 26.84 23.15 25.92 23.87 24.82L30.47 13.51C30.9 12.77 30.66 11.83 29.94 11.38C28.18 10.29 25.87 10.88 24.84 12.67L23.44 15.1L23.59 15.29L20.67 19.89L19.46 21.85Z" fill="#FFFFFF" fill-opacity="1.000000" fill-rule="evenodd"/>
		<path d="M23.44 15.1L32.94 25.99C33.51 26.64 33.46 27.64 32.83 28.23C31.33 29.63 28.97 29.51 27.63 27.96L20.67 19.89L19.06 18.17L19.42 12.35C21.09 12.87 22.55 13.91 23.59 15.3L23.44 15.1Z" fill="#FFFFFF" fill-opacity="1.000000" fill-rule="evenodd"/>
	</g>
	<path d="M50.9 15.01L50.26 17L48.28 17L51.29 8.27L53.67 8.27L56.68 17L54.7 17L54.05 15.01L50.9 15.01ZM57.69 8.27L59.51 8.27L59.51 17L57.69 17L57.69 8.27ZM71.62 11.87C70.88 11.87 70.37 12.37 70.36 13.21L70.36 17L68.55 17L68.55 8.27L70.31 8.27L70.31 11.6L70.39 11.6C70.69 10.83 71.35 10.37 72.34 10.37C73.71 10.37 74.61 11.29 74.61 12.83L74.61 17L72.79 17L72.79 13.15C72.79 12.35 72.36 11.87 71.62 11.87ZM52.45 10.26L51.37 13.56L53.59 13.56L52.52 10.26L52.45 10.26ZM62.77 19.45L60.96 19.45L60.96 10.45L62.75 10.45L62.75 11.55L62.83 11.55C63.07 11.02 63.6 10.37 64.69 10.37C66.13 10.37 67.34 11.48 67.34 13.73C67.34 15.92 66.18 17.1 64.69 17.1C63.63 17.1 63.08 16.49 62.83 15.95L62.77 15.95L62.77 19.45ZM79.82 16.09C79.5 16.7 78.87 17.12 77.9 17.12C76.66 17.12 75.73 16.46 75.73 15.17C75.73 13.71 76.9 13.27 78.19 13.15C79.33 13.04 79.78 12.98 79.78 12.56L79.78 12.54C79.78 12 79.42 11.69 78.8 11.69C78.15 11.69 77.76 12.01 77.64 12.45L75.96 12.31C76.21 11.12 77.25 10.37 78.81 10.37C80.27 10.37 81.59 11.02 81.59 12.58L81.59 17L79.87 17L79.87 16.09L79.82 16.09ZM64.11 11.81C63.23 11.81 62.74 12.55 62.74 13.72C62.74 14.89 63.24 15.66 64.11 15.66C65 15.66 65.49 14.87 65.49 13.72C65.49 12.59 65.01 11.81 64.11 11.81ZM77.47 15.11C77.47 15.61 77.87 15.87 78.43 15.87C79.22 15.87 79.79 15.34 79.79 14.65L79.79 13.96C79.57 14.11 78.92 14.2 78.53 14.26C77.89 14.34 77.47 14.6 77.47 15.11Z" fill="#000000" fill-opacity="1.000000" fill-rule="evenodd"/>
	<path d="M52.66 23.15C54.69 23.15 56.21 24.31 56.45 26.32L54.59 26.32C54.45 25.37 53.72 24.78 52.71 24.78C51.36 24.78 50.47 25.82 50.47 27.63C50.47 29.5 51.37 30.48 52.69 30.48C53.68 30.48 54.41 29.94 54.59 29.01L56.45 29.02C56.25 30.63 54.9 32.12 52.66 32.12C50.33 32.12 48.6 30.48 48.6 27.63C48.6 24.78 50.36 23.15 52.66 23.15ZM95.28 23.15C97.3 23.15 98.83 24.31 99.07 26.32L97.2 26.32C97.06 25.37 96.33 24.78 95.33 24.78C93.98 24.78 93.09 25.82 93.09 27.63C93.09 29.5 93.99 30.48 95.31 30.48C96.3 30.48 97.03 29.94 97.2 29.01L99.07 29.02C98.87 30.63 97.52 32.12 95.28 32.12C92.95 32.12 91.22 30.48 91.22 27.63C91.22 24.78 92.98 23.15 95.28 23.15ZM117.25 25.45L118.48 25.45L118.48 26.81L117.25 26.81L117.25 29.98C117.25 30.49 117.5 30.62 117.86 30.62C118.03 30.62 118.22 30.58 118.31 30.56L118.6 31.91C118.42 31.97 118.08 32.07 117.61 32.09C116.3 32.14 115.42 31.51 115.43 30.22L115.43 26.81L114.54 26.81L114.54 25.45L115.43 25.45L115.43 23.88L117.25 23.88L117.25 25.45ZM66.52 32L64.71 32L64.71 25.45L66.47 25.45L66.47 26.59L66.54 26.59C66.78 25.78 67.38 25.36 68.11 25.36C68.29 25.36 68.52 25.38 68.68 25.42L68.68 27.03C68.51 26.98 68.16 26.93 67.91 26.93C67.11 26.93 66.52 27.49 66.52 28.29L66.52 32ZM85.47 32L83.65 32L83.65 25.45L85.41 25.45L85.41 26.59L85.48 26.59C85.72 25.78 86.32 25.36 87.05 25.36C87.24 25.36 87.46 25.38 87.62 25.42L87.62 27.03C87.45 26.98 87.11 26.93 86.85 26.93C86.05 26.93 85.47 27.49 85.47 28.29L85.47 32ZM128.58 32L126.76 32L126.76 25.45L128.52 25.45L128.52 26.59L128.59 26.59C128.83 25.78 129.43 25.36 130.16 25.36C130.35 25.36 130.57 25.38 130.73 25.42L130.73 27.03C130.56 26.98 130.22 26.93 129.97 26.93C129.17 26.93 128.58 27.49 128.58 28.29L128.58 32ZM61.52 31.09C61.2 31.7 60.58 32.12 59.61 32.12C58.36 32.12 57.44 31.46 57.44 30.17C57.44 28.71 58.6 28.27 59.9 28.15C61.03 28.04 61.48 27.98 61.48 27.56L61.48 27.54C61.48 27 61.13 26.69 60.51 26.69C59.86 26.69 59.47 27.01 59.35 27.45L57.67 27.31C57.92 26.12 58.95 25.37 60.52 25.37C61.98 25.37 63.3 26.02 63.3 27.58L63.3 32L61.58 32L61.58 31.09L61.52 31.09ZM75.26 30.12C75 31.34 73.91 32.12 72.29 32.12C70.27 32.12 69.04 30.83 69.04 28.75C69.04 26.73 70.29 25.37 72.22 25.37C73.95 25.37 75.29 26.46 75.29 28.69L75.29 29.19L70.83 29.19L70.83 29.19C70.83 30.17 71.41 30.77 72.32 30.77C72.92 30.77 73.39 30.51 73.58 30.01L75.26 30.12ZM82.43 30.12C82.17 31.34 81.08 32.12 79.46 32.12C77.44 32.12 76.21 30.83 76.21 28.75C76.21 26.73 77.46 25.37 79.39 25.37C81.12 25.37 82.47 26.46 82.47 28.69L82.47 29.19L78.01 29.19L78.01 29.19C78.01 30.17 78.58 30.77 79.49 30.77C80.1 30.77 80.56 30.51 80.75 30.01L82.43 30.12ZM106.31 30.12C106.06 31.34 104.97 32.12 103.35 32.12C101.33 32.12 100.1 30.83 100.1 28.75C100.1 26.73 101.35 25.37 103.27 25.37C105 25.37 106.35 26.46 106.35 28.69L106.35 29.19L101.89 29.19L101.89 29.19C101.89 30.17 102.47 30.77 103.38 30.77C103.98 30.77 104.45 30.51 104.63 30.01L106.31 30.12ZM110.59 26.87C109.86 26.87 109.35 27.37 109.35 28.21L109.35 32L107.53 32L107.53 25.45L109.27 25.45L109.27 26.6L109.34 26.6C109.64 25.84 110.34 25.37 111.31 25.37C112.67 25.37 113.57 26.3 113.57 27.83L113.57 32L111.75 32L111.75 28.15C111.76 27.35 111.32 26.87 110.59 26.87ZM125.54 30.12C125.29 31.34 124.19 32.12 122.57 32.12C120.56 32.12 119.33 30.83 119.33 28.75C119.33 26.73 120.57 25.37 122.5 25.37C124.23 25.37 125.58 26.46 125.58 28.69L125.58 29.19L121.12 29.19L121.12 29.19C121.12 30.17 121.7 30.77 122.6 30.77C123.21 30.77 123.68 30.51 123.86 30.01L125.54 30.12ZM72.25 26.72C71.44 26.72 70.88 27.32 70.83 28.06L73.59 28.06C73.58 27.28 73.03 26.72 72.25 26.72ZM79.42 26.72C78.61 26.72 78.05 27.32 78.01 28.06L80.76 28.06C80.75 27.28 80.21 26.72 79.42 26.72ZM103.3 26.72C102.5 26.72 101.93 27.32 101.89 28.06L104.64 28.06C104.64 27.28 104.09 26.72 103.3 26.72ZM122.53 26.72C121.73 26.72 121.16 27.32 121.12 28.06L123.87 28.06C123.86 27.28 123.32 26.72 122.53 26.72ZM59.17 30.11C59.17 30.61 59.57 30.87 60.13 30.87C60.93 30.87 61.49 30.34 61.49 29.65L61.49 28.96C61.28 29.11 60.63 29.2 60.23 29.26C59.6 29.34 59.17 29.6 59.17 30.11Z" fill="#000000" fill-opacity="1.000000" fill-rule="evenodd"/>
</svg>
